<?xml version="1.0" standalone="no"?>
<!DOCTYPE svg PUBLIC "-//W3C//DTD SVG 20010904//EN"
 "http://www.w3.org/TR/2001/REC-SVG-20010904/DTD/svg10.dtd">
<svg version="1.0" xmlns="http://www.w3.org/2000/svg"
 width="1024.000000pt" height="1024.000000pt" viewBox="0 0 1024.000000 1024.000000"
 preserveAspectRatio="xMidYMid meet">

<g transform="translate(0.000000,1024.000000) scale(0.100000,-0.100000)"
fill="#000000" stroke="none">
<path d="M6300 9110 c-220 -18 -437 -117 -585 -265 -121 -120 -204 -252 -285
-450 l-37 -90 -64 -22 c-35 -12 -68 -22 -72 -22 -10 -1 -3 25 25 97 19 49 19
55 5 69 -14 14 -23 13 -96 -17 -98 -39 -234 -116 -320 -181 -47 -35 -77 -50
-110 -54 -269 -36 -471 -102 -746 -243 -148 -77 -160 -81 -179 -67 -12 8 -52
40 -91 70 -82 65 -224 137 -311 159 -80 21 -229 20 -308 0 -200 -52 -378 -214
-463 -424 -63 -158 -70 -361 -17 -520 52 -157 157 -282 296 -356 38 -19 68
-37 68 -39 0 -7 -49 -204 -80 -323 -17 -62 -30 -128 -30 -147 0 -45 -81 -231
-175 -400 -179 -324 -227 -439 -250 -603 -26 -184 -14 -368 35 -552 117 -430
429 -727 961 -914 116 -41 125 -46 133 -75 8 -29 5 -34 -57 -95 -119 -117
-232 -284 -348 -519 -35 -70 -68 -126 -73 -124 -13 4 -89 213 -301 822 -89
257 -86 250 -144 280 -28 13 -103 56 -167 95 -65 38 -123 70 -129 70 -26 0
-45 -42 -85 -190 -62 -226 -68 -262 -45 -296 10 -16 53 -105 95 -199 43 -93
121 -264 175 -380 151 -325 195 -426 195 -444 0 -10 -25 -51 -56 -92 -31 -40
-61 -85 -66 -98 -25 -66 36 -111 150 -111 l69 0 -1 -68 c-1 -59 4 -77 32 -132
65 -123 108 -160 186 -160 25 0 40 -7 55 -26 12 -15 21 -31 21 -36 0 -12 54
-58 94 -80 52 -29 91 -23 134 20 53 53 76 143 53 205 -8 20 -1 41 35 112 36
72 44 97 44 144 0 65 1 66 60 111 25 18 107 95 183 169 107 105 140 132 147
121 4 -8 13 -57 20 -108 17 -124 8 -300 -20 -378 -11 -32 -20 -68 -20 -80 0
-11 -16 -41 -35 -66 -80 -105 -264 -370 -270 -388 -6 -20 6 -52 32 -82 12 -14
15 -60 15 -259 l1 -242 -63 -31 c-146 -71 -245 -205 -197 -266 38 -49 44 -50
352 -50 337 0 339 1 432 97 55 58 184 242 238 340 24 45 33 54 64 59 20 3 57
19 82 35 25 16 49 29 52 29 4 0 14 -14 22 -30 41 -78 366 -256 417 -229 22 12
22 37 3 109 -17 65 -13 70 67 70 56 0 58 -1 66 -32 4 -17 15 -36 25 -42 23
-14 87 18 166 84 l63 52 91 -7 c51 -4 100 -11 109 -16 10 -5 52 -39 95 -76 43
-36 101 -81 129 -99 30 -19 83 -72 131 -131 103 -126 171 -189 219 -203 27 -8
133 -10 332 -8 l294 3 30 34 c24 27 29 40 24 63 -9 44 -60 112 -114 152 -49
36 -167 96 -188 96 -16 0 -24 24 -24 73 0 23 -9 95 -20 160 -11 65 -20 120
-20 123 0 15 31 -4 89 -54 87 -77 188 -151 216 -158 63 -16 422 178 441 238
10 32 23 20 -353 313 -129 101 -185 143 -393 296 -63 47 -172 127 -242 179
l-128 94 0 66 c1 82 15 196 36 283 19 78 27 81 104 42 147 -74 434 -267 446
-300 3 -7 -2 -39 -12 -71 -22 -75 -22 -183 -1 -255 29 -97 112 -147 174 -104
19 14 27 12 87 -16 125 -59 245 -33 340 72 46 52 86 146 86 203 -1 108 -64
278 -168 449 -161 265 -481 644 -685 811 -26 22 -44 42 -40 46 4 4 60 24 123
45 342 112 563 237 750 425 168 168 251 314 312 548 26 103 31 139 35 297 9
304 -22 408 -226 769 -136 240 -209 391 -217 454 -3 20 -19 89 -34 152 -39
153 -70 299 -70 325 0 16 15 27 68 50 95 42 203 151 255 259 63 128 80 215 75
375 -5 151 -26 230 -90 339 -42 73 -177 207 -251 251 -141 83 -312 112 -462
77 -98 -23 -255 -103 -352 -181 -46 -36 -88 -65 -93 -65 -6 0 -50 22 -98 49
-48 27 -122 66 -164 87 -43 21 -78 41 -78 44 0 4 46 32 103 62 293 161 415
282 482 483 33 98 45 185 45 342 0 145 -8 180 -42 187 -50 10 -147 13 -228 6z
m63 -87 c-7 -2 -21 -2 -30 0 -10 3 -4 5 12 5 17 0 24 -2 18 -5z m-188 -28
c-38 -13 -65 -24 -60 -24 6 -1 -20 -14 -57 -30 -36 -16 -80 -38 -97 -50 -29
-21 -51 -21 -51 0 0 14 152 85 230 108 92 27 119 24 35 -4z m-329 -170 c4 -10
-21 -44 -73 -98 -44 -46 -98 -110 -120 -143 -50 -74 -134 -231 -159 -298 -28
-78 -28 -36 1 49 54 161 153 330 259 441 63 65 82 76 92 49z m-691 -576 c-67
-133 -36 -158 105 -85 48 25 93 46 98 46 6 0 7 -15 1 -42 -6 -23 -8 -47 -5
-53 2 -7 49 -20 103 -30 136 -24 278 -65 413 -120 114 -46 314 -151 379 -199
19 -15 37 -26 40 -26 3 0 35 28 71 61 165 155 333 233 505 233 101 0 158 -15
270 -73 111 -57 244 -205 270 -301 5 -20 1 -17 -20 14 -19 27 -30 35 -35 26
-4 -7 -15 -10 -24 -7 -14 6 -15 3 -5 -16 8 -13 -9 -2 -41 26 -193 173 -471
168 -688 -12 -73 -61 -92 -99 -92 -184 0 -96 37 -296 86 -458 3 -13 -28 -6
-153 33 -287 88 -494 132 -793 168 -541 66 -1106 37 -1597 -80 -264 -63 -642
-189 -786 -262 -21 -10 -43 -18 -48 -16 -13 4 81 187 139 268 62 89 169 214
236 278 52 49 56 57 56 98 0 56 -16 87 -72 141 -102 99 -236 153 -377 153
-144 0 -243 -42 -338 -144 -32 -34 -64 -70 -71 -81 -10 -17 -11 -16 -1 5 11
23 11 24 -4 11 -21 -17 -21 -10 -3 34 8 19 13 35 11 35 -6 0 -36 -55 -52 -95
l-13 -30 6 35 c15 86 97 220 175 288 56 48 144 99 218 124 85 29 227 31 316 4
127 -38 253 -116 350 -215 27 -28 55 -51 62 -51 7 0 41 18 75 41 84 55 301
159 419 203 130 48 271 84 393 99 100 14 102 14 186 75 85 61 261 165 268 157
2 -2 -13 -36 -33 -76z m-1860 -513 c84 -22 142 -52 196 -103 82 -77 82 -81 -8
-176 -152 -163 -267 -326 -345 -494 -21 -46 -42 -83 -46 -83 -12 0 -143 93
-164 117 -27 30 -95 183 -108 244 -7 32 -11 93 -8 141 9 175 113 313 267 354
61 17 155 17 216 0z m3819 -16 c147 -57 239 -229 221 -413 -7 -72 -33 -161
-63 -212 -11 -17 -22 -42 -25 -57 -11 -42 -160 -168 -199 -168 -5 0 -24 33
-42 74 -79 174 -195 343 -333 487 -86 89 -95 102 -88 126 13 54 137 143 249
180 62 20 207 11 280 -17z m-1774 -535 c144 -6 528 -49 539 -61 3 -4 -14 -4
-39 0 -101 13 -837 18 -1010 7 -570 -38 -1070 -158 -1535 -367 -184 -83 -179
-78 -205 -176 -12 -45 -22 -93 -22 -105 0 -12 -11 -29 -24 -38 -22 -14 -24
-14 -24 2 0 19 67 283 73 290 2 2 67 32 144 67 405 185 841 308 1288 361 161
20 449 34 580 29 50 -2 155 -6 235 -9z m-577 -782 c115 -240 185 -433 222
-615 l18 -88 68 0 c63 0 69 2 73 23 3 12 13 60 22 107 34 178 125 432 225 633
l49 97 63 0 c34 0 150 -5 259 -12 l196 -12 -86 -53 c-182 -111 -377 -249 -399
-282 -33 -49 -30 -86 11 -127 39 -39 82 -44 143 -19 l36 15 -7 -32 c-50 -237
34 -460 206 -549 32 -17 60 -23 113 -23 86 -1 149 29 214 99 194 211 138 611
-102 725 l-57 28 99 61 c55 34 103 66 106 71 3 6 17 10 31 10 32 0 379 -116
519 -174 l110 -45 102 -177 c56 -98 135 -251 175 -340 40 -90 76 -163 80 -164
14 0 40 156 42 250 0 54 4 96 8 92 15 -15 152 -250 194 -334 158 -313 143
-743 -36 -1076 -54 -100 -112 -173 -214 -269 -301 -285 -804 -462 -1496 -528
-413 -38 -978 -39 -1330 0 -747 82 -1263 269 -1557 563 -246 246 -368 649
-308 1017 26 160 76 284 215 530 116 205 144 262 190 381 l43 112 101 29 c149
44 516 131 631 149 l100 16 104 -71 c57 -39 116 -78 132 -87 16 -8 29 -17 29
-19 0 -2 -22 -14 -50 -26 -55 -24 -127 -95 -159 -157 -48 -95 -65 -263 -36
-371 32 -120 109 -226 199 -274 59 -31 164 -30 228 1 97 48 174 156 198 279
12 62 9 236 -5 280 -7 23 -7 23 29 8 57 -24 100 -19 141 16 30 26 35 38 35 73
0 35 -6 48 -37 78 -38 36 -264 187 -403 269 -53 31 -69 45 -55 47 46 6 288 19
391 21 l111 1 76 -157z m-703 -438 c17 -44 -7 -95 -45 -95 -31 0 -47 22 -48
66 -2 70 69 93 93 29z m1790 25 c40 -40 16 -120 -36 -120 -28 0 -44 27 -44 71
0 34 24 69 47 69 7 0 22 -9 33 -20z m-3310 -1903 l125 -73 23 -64 c12 -35 20
-70 17 -77 -3 -9 0 -11 7 -7 8 5 9 2 5 -9 -4 -10 -2 -17 4 -17 6 0 8 -7 5 -16
-4 -10 -2 -13 6 -8 7 5 9 -2 5 -22 -3 -16 -3 -22 0 -14 8 20 53 -113 46 -138
-2 -10 3 -26 11 -35 9 -8 29 -52 46 -97 32 -87 36 -104 19 -80 -9 12 -9 11 -4
-5 4 -11 34 -94 65 -185 32 -91 59 -156 61 -145 3 12 28 -41 62 -129 32 -82
57 -156 55 -164 -2 -8 -11 -20 -20 -26 -23 -14 -39 7 -75 99 -33 86 -38 93
-52 66 -13 -23 -5 -64 30 -159 l19 -53 -33 -14 c-18 -7 -44 -16 -58 -20 -24
-6 -24 -5 -21 56 4 56 -11 219 -25 275 -3 14 -15 24 -34 28 -26 5 -29 10 -29
43 0 21 3 62 7 91 l6 53 33 -62 c63 -117 70 -104 23 43 -16 53 -36 101 -42
106 -7 6 -45 20 -86 32 l-74 22 7 51 c3 29 9 82 12 120 l7 67 48 -97 c52 -107
64 -105 23 3 -14 38 -34 96 -45 129 -28 91 -35 98 -89 86 -75 -17 -74 -19 -66
54 4 36 9 78 12 93 3 15 -1 35 -9 46 -13 17 -16 17 -75 -13 -74 -38 -80 -54
-16 -49 l46 3 -7 -80 c-5 -56 -12 -83 -24 -92 -13 -9 -14 -16 -5 -30 10 -15
23 -18 78 -15 l66 2 0 -32 c0 -18 -7 -82 -15 -143 -14 -104 -14 -111 4 -135
10 -14 47 -37 82 -51 72 -30 68 -16 49 -162 -7 -48 -10 -94 -7 -102 3 -7 24
-19 45 -26 l39 -11 12 -100 c6 -54 11 -124 10 -156 0 -51 -2 -54 -12 -32 -89
198 -406 888 -461 1004 l-56 119 30 126 c44 179 50 201 58 201 4 0 63 -33 132
-73z m1241 -474 c13 -7 30 -11 37 -8 6 2 12 1 12 -4 0 -4 12 -6 26 -3 19 3 23
7 12 14 -8 6 4 7 36 3 26 -4 46 -3 43 2 -3 4 12 8 34 8 29 0 38 -4 36 -15 -1
-8 4 -14 11 -12 6 1 12 -2 12 -7 0 -5 -6 -12 -12 -14 -8 -3 -6 -6 4 -6 21 -1
43 -38 26 -43 -6 -2 8 -10 30 -16 35 -11 54 -28 118 -110 42 -53 141 -160 219
-238 l143 -140 -106 -125 c-59 -69 -120 -141 -137 -161 l-30 -37 -50 13 c-86
23 -218 66 -257 82 -36 16 -38 20 -53 93 -40 187 -108 450 -160 611 -70 221
-71 224 -42 170 13 -25 34 -51 48 -57z m56 81 c-3 -3 -12 -4 -19 -1 -8 3 -5 6
6 6 11 1 17 -2 13 -5z m2458 -97 c-101 -217 -228 -584 -266 -772 -12 -60 -23
-111 -23 -112 -4 -8 -325 -65 -456 -82 -259 -31 -287 -34 -294 -23 -13 22 -72
33 -102 21 -16 -7 -60 -13 -99 -13 -38 -1 -81 -4 -95 -7 -14 -3 -19 -4 -12 -2
19 7 14 21 -10 29 -22 7 -22 7 -3 15 12 4 -18 8 -75 8 -52 1 -101 5 -108 10
-23 14 99 151 323 362 66 62 171 162 233 222 l112 110 65 -5 c62 -5 65 -5 91
26 15 17 41 46 58 65 l31 34 -30 -19 c-16 -10 -39 -27 -50 -39 -11 -11 -27
-20 -35 -20 -8 0 -14 -6 -12 -13 1 -6 -2 -12 -8 -12 -5 0 -10 9 -10 19 0 25
-18 37 -26 17 -3 -8 -12 -17 -21 -20 -8 -3 2 13 22 36 20 24 57 68 82 99 46
56 47 57 111 63 35 4 66 5 69 3 15 -15 -218 -270 -347 -379 -30 -26 -50 -47
-44 -47 15 -1 155 91 240 159 70 55 188 180 234 247 25 37 27 37 123 50 103
12 358 60 366 68 16 17 5 -14 -34 -98z m-2257 53 c2 -4 18 -33 37 -65 19 -32
35 -59 35 -61 0 -13 -38 37 -49 64 -12 28 -16 31 -30 20 -14 -11 -14 -11 -3 4
11 14 10 18 -7 27 -11 6 -37 15 -58 21 -34 8 -32 9 17 3 30 -3 56 -9 58 -13z
m2469 -84 c43 -35 103 -90 134 -122 70 -73 219 -252 219 -264 0 -4 -44 -35
-98 -69 -53 -33 -147 -97 -207 -142 -61 -45 -114 -82 -120 -82 -5 0 -54 26
-107 57 -54 31 -109 61 -123 66 -30 12 -30 14 26 170 78 221 175 450 189 450
5 0 43 -29 87 -64z m-2834 -38 c41 -108 157 -536 157 -578 0 -13 -59 -56 -65
-48 -1 2 -14 25 -30 52 -15 28 -46 70 -69 94 -25 28 -40 52 -38 64 4 24 -25
58 -49 58 -10 0 -22 6 -26 13 -4 7 -21 21 -37 31 l-29 19 26 19 c30 22 36 62
11 72 -9 4 -38 3 -65 0 -39 -5 -49 -4 -49 8 0 42 212 291 231 271 4 -4 19 -38
32 -75z m1502 49 c16 -2 10 -12 -35 -56 -71 -69 -258 -225 -274 -229 -18 -4
-276 265 -276 288 0 5 533 2 585 -3z m-927 -75 c6 2 63 -47 129 -108 126 -118
190 -175 238 -212 l30 -22 -35 -30 c-19 -17 -42 -30 -50 -30 -18 0 -195 192
-263 285 -58 80 -96 144 -75 127 9 -7 20 -11 26 -10z m877 -134 c-15 -18 -80
-89 -144 -158 -188 -200 -298 -328 -379 -440 -41 -58 -78 -108 -82 -113 -9
-10 -110 12 -110 24 0 18 201 247 307 350 86 83 417 366 431 368 2 1 -8 -14
-23 -31z m-345 -151 c-3 -1 -27 22 -55 53 l-49 55 54 -52 c30 -29 52 -54 50
-56z m-1478 -353 c9 -8 -151 -172 -201 -204 -48 -32 -48 -39 -1 -15 17 9 30
13 30 10 0 -12 -120 -64 -136 -58 -12 4 -15 3 -10 -5 4 -7 5 -12 2 -12 -2 0
-13 -3 -23 -6 -15 -5 -16 -4 -3 6 13 10 12 11 -3 6 -10 -3 -24 -6 -30 -6 -9 0
-9 -2 0 -8 6 -4 -10 -7 -35 -8 -25 -1 -48 -6 -50 -13 -4 -12 -86 -13 -135 -2
l-29 6 43 54 c38 48 44 52 54 36 26 -46 45 -57 87 -50 108 19 276 92 315 139
25 30 25 38 7 110 -6 26 -6 26 53 26 33 0 62 -2 65 -6z m3898 -196 c42 -88 70
-182 70 -233 0 -60 -28 -129 -67 -167 -83 -79 -160 -92 -259 -42 -49 24 -60
34 -67 64 -7 28 -5 43 13 77 28 54 24 78 -15 78 -24 0 -34 -7 -53 -42 -12 -23
-28 -69 -33 -102 -6 -34 -14 -61 -18 -61 -4 0 -15 15 -23 34 -60 124 -9 296
112 379 64 44 208 97 263 97 38 0 38 0 77 -82z m-2935 -53 c72 -19 179 -43
239 -55 61 -11 112 -22 114 -25 12 -12 -63 -17 -176 -12 -110 5 -264 32 -364
63 -12 4 -18 0 -18 -11 0 -12 -5 -15 -22 -9 -69 21 -68 19 -68 84 l0 59 83
-30 c45 -17 141 -46 212 -64z m-926 -31 c46 -64 56 -103 46 -171 l-7 -47 -19
24 c-10 14 -19 30 -19 37 0 6 -8 14 -19 18 -14 4 -20 19 -25 68 -4 34 -9 77
-13 95 -8 48 10 40 56 -24z m1514 29 c-7 -2 -19 -2 -25 0 -7 3 -2 5 12 5 14 0
19 -2 13 -5z m44 -9 c-3 -3 -12 -4 -19 -1 -8 3 -5 6 6 6 11 1 17 -2 13 -5z
m-1677 -62 l0 -38 -58 -12 c-125 -26 -137 -5 -29 49 39 20 75 36 80 37 4 1 7
-15 7 -36z m1840 -27 c0 -13 -77 -102 -82 -95 -9 13 -38 83 -36 85 2 1 23 9
48 17 48 16 70 14 70 -7z m-1037 -68 c-7 -40 -8 -41 -35 -34 -21 6 -23 11 -20
46 4 38 5 39 33 29 25 -9 28 -13 22 -41z m-1058 4 c-3 -5 20 -35 50 -66 30
-32 55 -61 55 -67 0 -5 14 -14 30 -19 46 -16 35 -65 -20 -94 -65 -34 -114 -5
-166 97 -29 58 -30 97 -3 132 18 23 68 39 54 17z m1850 -63 c-57 -47 -84 -77
-109 -123 -19 -37 -21 -54 -20 -215 1 -122 8 -217 23 -315 28 -186 28 -184
-19 -223 -21 -17 -41 -29 -43 -25 -14 24 -29 318 -24 454 7 173 23 255 68 340
35 65 57 88 114 118 54 29 56 26 10 -11z m-1540 -57 c-3 -5 -1 -12 5 -16 21
-13 11 -71 -17 -96 l-28 -24 20 25 c16 21 14 20 -13 -4 -34 -31 -40 -41 -19
-31 6 4 1 -3 -12 -14 -37 -33 -56 -27 -30 8 26 36 38 124 19 146 -11 13 -6 15
34 15 27 0 45 -4 41 -9z m736 -10 c11 -9 -9 -51 -23 -51 -7 1 -23 6 -34 13
-17 9 -20 17 -13 35 7 18 13 21 36 16 16 -4 31 -9 34 -13z m-51 -142 c117 -54
376 -129 529 -154 l44 -7 -6 -77 c-4 -42 -2 -141 3 -221 l9 -145 -52 -47 c-46
-43 -57 -48 -98 -48 -65 0 -213 40 -349 95 -131 53 -332 161 -384 208 l-35 32
137 192 c75 106 142 192 147 192 6 0 30 -9 55 -20z m2231 -144 c89 -96 249
-289 249 -301 0 -19 -70 -103 -142 -170 -70 -65 -171 -136 -255 -178 -71 -35
-202 -77 -217 -69 -6 3 -45 34 -86 68 -146 120 -155 125 -232 125 -37 0 -68 1
-68 3 0 1 11 24 25 51 41 80 42 109 7 163 -17 27 -55 98 -85 160 l-55 112 26
5 c15 3 66 10 113 16 186 22 403 71 539 122 l65 25 35 -41 c19 -23 56 -63 81
-91z m-2881 71 c0 -27 -35 -76 -54 -76 -7 0 -21 9 -30 19 -17 19 -17 20 11 35
16 8 35 22 42 30 19 23 31 20 31 -8z m3425 -185 c125 -95 325 -253 359 -282 8
-7 -68 -69 -86 -69 -25 0 -420 408 -488 503 -17 24 -20 26 215 -152z m-1541
-153 c42 -124 76 -235 76 -245 0 -26 -56 -91 -67 -78 -5 6 -15 51 -22 100 -7
50 -23 146 -36 215 -25 131 -40 248 -32 240 3 -3 39 -107 81 -232z m-185 206
c5 -4 75 -385 86 -466 6 -44 5 -48 -17 -53 -13 -3 -50 -5 -83 -3 l-59 3 -18
60 c-38 127 -84 428 -71 463 5 11 22 12 82 7 42 -4 78 -9 80 -11z m-1292 -340
c21 -14 93 -53 159 -86 102 -50 121 -63 117 -79 -3 -10 -8 -19 -12 -19 -4 0
-76 26 -161 58 -154 58 -155 59 -158 91 -3 32 3 61 12 61 3 0 22 -12 43 -26z
m153 -219 c47 -15 88 -30 92 -34 3 -3 1 -18 -5 -33 l-12 -28 -140 48 -140 47
-3 42 -3 42 63 -28 c35 -16 101 -41 148 -56z m220 35 c18 -12 2 -12 -25 0 -13
6 -15 9 -5 9 8 0 22 -4 30 -9z m-4 -25 c66 -23 68 -23 44 -3 -21 17 -22 20 -5
15 11 -3 48 -13 83 -23 34 -9 65 -20 67 -24 3 -5 -3 -17 -13 -28 -17 -20 -18
-20 -132 30 -108 47 -131 58 -118 58 3 0 36 -11 74 -25z m2321 -102 c-3 -10
-5 -4 -5 12 0 17 2 24 5 18 2 -7 2 -21 0 -30z m-2703 1 c3 -9 6 -24 6 -34 0
-10 8 -21 18 -23 9 -3 0 -5 -20 -6 -38 -1 -38 -1 -38 39 0 41 21 57 34 24z
m2645 -68 c-2 -2 -22 -6 -44 -9 -28 -5 -34 -4 -20 3 19 8 73 14 64 6z m-2354
-25 c18 -7 17 -8 -7 -13 -17 -3 -29 0 -32 8 -6 15 8 17 39 5z m52 -17 c-3 -3
-12 -4 -19 -1 -8 3 -5 6 6 6 11 1 17 -2 13 -5z m2093 -18 c0 -2 -25 -18 -56
-36 -44 -25 -59 -29 -68 -19 -8 9 -8 10 1 5 7 -4 21 1 32 11 11 9 35 22 53 29
18 6 34 12 36 13 1 0 2 -1 2 -3z m-2340 -40 c84 -16 166 -45 223 -79 l38 -23
-28 -29 c-54 -54 -90 -63 -270 -65 -89 0 -163 3 -163 8 0 4 18 26 40 47 44 43
51 70 20 80 -30 10 -81 -24 -115 -77 -33 -50 -63 -63 -122 -52 -47 9 -42 30
25 93 60 57 95 76 177 97 65 16 85 16 175 0z m2784 -26 c62 -31 156 -116 156
-141 0 -17 -8 -19 -62 -19 -62 0 -63 1 -85 38 -43 75 -143 119 -151 66 -2 -15
7 -29 30 -44 35 -25 58 -49 58 -62 0 -4 -71 -8 -157 -8 -172 0 -213 10 -261
63 l-24 25 40 27 c23 15 78 40 124 56 75 27 93 30 183 27 82 -3 109 -8 149
-28z"/>
<path d="M4931 5440 c-65 -14 -91 -35 -91 -72 0 -45 62 -149 130 -219 l59 -60
-47 -46 c-95 -93 -236 -133 -341 -98 -53 17 -92 50 -146 119 -28 35 -33 38
-53 27 -30 -16 -28 -41 11 -97 46 -67 106 -110 188 -135 67 -20 69 -22 79 -62
27 -106 93 -314 106 -335 18 -28 87 -61 126 -62 15 0 47 7 71 15 40 13 49 13
80 0 48 -20 93 -19 144 4 60 28 70 50 172 400 5 19 19 27 61 38 69 17 148 70
187 126 37 52 43 67 31 90 -16 31 -46 19 -85 -34 -28 -36 -55 -59 -100 -81
-57 -28 -69 -30 -135 -26 -92 6 -154 35 -225 104 l-54 53 64 63 c39 39 77 88
96 126 65 128 28 164 -169 169 -63 1 -135 -2 -159 -7z m259 -80 c12 -8 12 -13
-2 -42 -24 -51 -97 -128 -120 -128 -25 0 -75 52 -113 115 -22 38 -25 49 -14
56 19 12 230 11 249 -1z m-170 -624 c0 -249 -2 -256 -64 -256 -46 0 -63 17
-87 85 -29 81 -78 278 -72 287 2 5 14 8 26 8 27 0 109 39 157 74 19 14 36 25
38 26 1 0 2 -101 2 -224z m150 179 c29 -20 80 -43 112 -53 59 -17 59 -17 53
-50 -13 -69 -86 -280 -106 -306 -24 -30 -71 -35 -107 -10 -22 15 -22 19 -22
240 0 124 4 223 8 220 5 -3 33 -21 62 -41z"/>
<path d="M5625 3569 c-11 -17 1 -21 15 -4 8 9 8 15 2 15 -6 0 -14 -5 -17 -11z"/>
<path d="M5557 3488 c-25 -29 -43 -57 -40 -62 8 -12 53 40 53 60 0 8 6 14 14
14 8 0 17 7 20 16 13 33 -2 24 -47 -28z"/>
</g>
</svg>
